<?xml version="1.0" encoding="UTF-8"?>
<svg width="842px" height="245px" viewBox="0 0 842 245" version="1.1" xmlns="http://www.w3.org/2000/svg" xmlns:xlink="http://www.w3.org/1999/xlink">
    <!-- Generator: Sketch 50 (54983) - http://www.bohemiancoding.com/sketch -->
    <title>under consctruction 2</title>
    <desc>Created with Sketch.</desc>
    <defs></defs>
    <g id="Page-1" stroke="none" stroke-width="1" fill="none" fill-rule="evenodd" stroke-linecap="round" stroke-linejoin="round">
        <g id="under-consctruction-2" transform="translate(1.000000, 20.000000)" stroke="#3537C8" stroke-width="0.5">
            <g id="Group-3" transform="translate(147.000000, 77.000000)">
                <circle id="Oval" cx="420" cy="13" r="3"></circle>
                <circle id="Oval" cx="420" cy="37" r="3"></circle>
                <path d="M405,48 L405,2" id="Shape"></path>
                <path d="M424,36.75 C424,43.5154882 418.403559,49 411.5,49 C404.596441,49 399,43.5154882 399,36.75 L399,12.25 C399,5.48451181 404.596441,0 411.5,0 C418.403559,0 424,5.48451181 424,12.25" id="Shape"></path>
                <circle id="Oval" cx="205" cy="13" r="3"></circle>
                <circle id="Oval" cx="205" cy="37" r="3"></circle>
                <path d="M190,48 L190,2" id="Shape"></path>
                <path d="M209,36.75 C209,43.5154882 203.403559,49 196.5,49 C189.596441,49 184,43.5154882 184,36.75 L184,12.25 C184,5.48451181 189.596441,0 196.5,0 C203.403559,0 209,5.48451181 209,12.25" id="Shape"></path>
                <path d="M61,0 L61,12" id="Shape"></path>
                <path d="M61,37 L61,49" id="Shape"></path>
                <path d="M61,0 L67.25,0 C77.6053391,0 86,8.28273213 86,18.5 C86,28.7172679 77.6053391,37 67.25,37 L61,37" id="Shape"></path>
                <path d="M61,50 L67.25,50 C77.6053391,50 86,41.7172679 86,31.5 C86,21.2827321 77.6053391,13 67.25,13 L61,13" id="Shape"></path>
                <path d="M61,19 L61,31" id="Shape"></path>
                <path d="M288,13 L288,38" id="Shape"></path>
                <path d="M301,12.3265198 C301.000154,6.34521926 296.645124,1.22719469 290.671475,0.188452998 C284.697826,-0.850288697 278.830119,2.49013176 276.755438,8.1106984 C274.680757,13.731265 276.998052,20.0093497 282.251206,23 L282.251206,1.69001466" id="Shape"></path>
                <path d="M276,37.6734802 C275.999846,43.6547807 280.354876,48.7728053 286.328525,49.811547 C292.302174,50.8502887 298.169881,47.5098682 300.244562,41.8893016 C302.319243,36.268735 300.001948,29.9906503 294.748794,27 L294.748794,48.3469604" id="Shape"></path>
                <path d="M344,25 L362,43" id="Shape"></path>
                <path d="M344,31 L362,49" id="Shape"></path>
                <path d="M337,31 L337,49" id="Shape"></path>
                <path d="M343.25,6 L349.5,6 C356.40356,6.00000029 362,11.5964408 362,18.5 C362,25.4035592 356.40356,30.9999997 349.5,31 L337,31" id="Shape"></path>
                <path d="M337,0 L349.5,0 C356.40356,2.90963271e-07 362,5.59644083 362,12.5 C362,19.4035592 356.40356,24.9999997 349.5,25 L343.25,25" id="Shape"></path>
                <path d="M129,25 L147,43" id="Shape"></path>
                <path d="M129,31 L147,49" id="Shape"></path>
                <path d="M123,31 L123,49" id="Shape"></path>
                <path d="M129.25,6 L135.5,6 C142.40356,6.00000029 148,11.5964408 148,18.5 C148,25.4035592 142.40356,30.9999997 135.5,31 L123,31" id="Shape"></path>
                <path d="M123,0 L135.5,0 C142.40356,2.90963236e-07 148,5.59644083 148,12.5 C148,19.4035592 142.40356,24.9999997 135.5,25 L129.25,25" id="Shape"></path>
                <path d="M98,6 L110,6" id="Shape"></path>
                <path d="M98,43 L110,43" id="Shape"></path>
                <polyline id="Shape" points="92 12 104.5 0 117 0"></polyline>
                <polyline id="Shape" points="92 37 104.5 49 117 49"></polyline>
                <polyline id="Shape" points="98 0 92 0 92 12.25 92 12.25 104 24.5 104 24.5 92 36.75 92 36.75 92 49 98 49"></polyline>
                <path d="M221,12 C221,8.6862915 223.686292,6 227,6 C230.313708,6 233,8.6862915 233,12" id="Shape"></path>
                <path d="M240,36.75 L240,12.25 C240,5.48451181 234.403559,0 227.5,0 C220.596441,0 215,5.48451181 215,12.25 L215,36.75 C215,43.5154882 220.596441,49 227.5,49 C234.403559,49 240,43.5154882 240,36.75 Z" id="Shape"></path>
                <path d="M221,37 C221,40.3137085 223.686292,43 227,43 C230.313708,43 233,40.3137085 233,37" id="Shape"></path>
                <path d="M227,13 L227,38" id="Shape"></path>
                <path d="M497,12 C497,8.6862915 499.686292,6 503,6 C506.313708,6 509,8.6862915 509,12" id="Shape"></path>
                <path d="M516,36.75 L516,12.25 C516,5.48451181 510.403559,0 503.5,0 C496.596441,0 491,5.48451181 491,12.25 L491,36.75 C491,43.5154882 496.596441,49 503.5,49 C510.403559,49 516,43.5154882 516,36.75 Z" id="Shape"></path>
                <path d="M497,37 C497,40.3137085 499.686292,43 503,43 C506.313708,43 509,40.3137085 509,37" id="Shape"></path>
                <path d="M503,13 L503,38" id="Shape"></path>
                <path d="M522,25 L547,50" id="Shape"></path>
                <path d="M546,43 L534,31" id="Shape"></path>
                <path d="M540,31 L546,37" id="Shape"></path>
                <path d="M522,0 L547,25" id="Shape"></path>
                <path d="M522,6 L534,18" id="Shape"></path>
                <path d="M528,19 L522,13" id="Shape"></path>
                <path d="M522,49 L522,0" id="Shape"></path>
                <path d="M546,49 L546,0" id="Shape"></path>
                <path d="M528,25 L540,25" id="Shape"></path>
                <path d="M30,25 L55,50" id="Shape"></path>
                <path d="M55,43 L43,31" id="Shape"></path>
                <path d="M49,31 L55,37" id="Shape"></path>
                <path d="M30,0 L55,25" id="Shape"></path>
                <path d="M30,6 L42,18" id="Shape"></path>
                <path d="M36,19 L30,13" id="Shape"></path>
                <path d="M30,49 L30,0" id="Shape"></path>
                <path d="M55,49 L55,0" id="Shape"></path>
                <path d="M37,25 L49,25" id="Shape"></path>
                <path d="M245,25 L270,50" id="Shape"></path>
                <path d="M270,43 L258,31" id="Shape"></path>
                <path d="M264,31 L270,37" id="Shape"></path>
                <path d="M245,0 L270,25" id="Shape"></path>
                <path d="M245,6 L257,18" id="Shape"></path>
                <path d="M251,19 L245,13" id="Shape"></path>
                <path d="M245,49 L245,0" id="Shape"></path>
                <path d="M270,49 L270,0" id="Shape"></path>
                <path d="M251,25 L263,25" id="Shape"></path>
                <path d="M319,0 L319,49" id="Shape"></path>
                <path d="M307,6 L332,6" id="Shape"></path>
                <polyline id="Shape" points="332 12 319.5 0 307 12"></polyline>
                <polyline id="Shape" points="307 12 307 0 332 0 332 12"></polyline>
                <path d="M313,50 L325,50" id="Shape"></path>
                <path d="M442,0 L442,49" id="Shape"></path>
                <path d="M430,6 L455,6" id="Shape"></path>
                <polyline id="Shape" points="455 12 442.5 0 430 12"></polyline>
                <polyline id="Shape" points="430 12 430 0 455 0 455 12"></polyline>
                <path d="M436,50 L448,50" id="Shape"></path>
                <path d="M374,0 L374,48" id="Shape"></path>
                <path d="M387,0 L387,48" id="Shape"></path>
                <path d="M386.75,0 C386.75,3.38274409 389.54822,6.125 393,6.125 L393,36.75 C393,43.5154882 387.403559,49 380.5,49 C373.596441,49 368,43.5154882 368,36.75 L368,6.125 C371.45178,6.125 374.25,3.38274409 374.25,0" id="Shape"></path>
                <path d="M6,0 L6,48" id="Shape"></path>
                <path d="M18,0 L18,48" id="Shape"></path>
                <path d="M18.75,0 C18.75,3.38274409 21.5482203,6.125 25,6.125 L25,36.75 C25,43.5154882 19.4035594,49 12.5,49 C5.59644063,49 0,43.5154882 0,36.75 L0,6.125 C3.45177969,6.125 6.25,3.38274409 6.25,0" id="Shape"></path>
                <path d="M473,6 L473,43" id="Shape"></path>
                <path d="M466,0 L466,49" id="Shape"></path>
                <path d="M479,49 L479,0" id="Shape"></path>
                <polyline id="Shape" points="460 0 466.25 0 466.25 0 472.5 6 478.75 0 478.75 0 485 0"></polyline>
                <polyline id="Shape" points="460 49 466.25 49 466.25 49 472.5 43 478.75 49 485 49"></polyline>
            </g>
            <g id="Group-2" transform="translate(0.000000, 193.000000)">
                <path d="M320.08,0.81 L330.08,10.81" id="Shape"></path>
                <path d="M330.08,0.81 L340.08,10.81" id="Shape"></path>
                <path d="M340.08,0.81 L350.08,10.81" id="Shape"></path>
                <path d="M350.08,0.81 L360.08,10.81" id="Shape"></path>
                <path d="M360.08,0.81 L370.08,10.81" id="Shape"></path>
                <path d="M370.08,0.81 L380.08,10.81" id="Shape"></path>
                <path d="M380.08,0.81 L390.08,10.81" id="Shape"></path>
                <path d="M390.08,0.81 L400.08,10.81" id="Shape"></path>
                <path d="M400.08,0.81 L410.08,10.81" id="Shape"></path>
                <path d="M410.08,0.81 L420.08,10.81" id="Shape"></path>
                <path d="M420.08,0.81 L430.08,10.81" id="Shape"></path>
                <path d="M430.08,0.81 L440.08,10.81" id="Shape"></path>
                <path d="M440.08,0.81 L450.08,10.81" id="Shape"></path>
                <path d="M450.08,0.81 L460.08,10.81" id="Shape"></path>
                <path d="M520.08,0.81 L510.08,10.81" id="Shape"></path>
                <path d="M510.08,0.81 L500.08,10.81" id="Shape"></path>
                <path d="M500.08,0.81 L490.08,10.81" id="Shape"></path>
                <path d="M490.08,0.81 L480.08,10.81" id="Shape"></path>
                <path d="M480.08,0.81 L470.08,10.81" id="Shape"></path>
                <path d="M470.08,0.81 L460.08,10.81" id="Shape"></path>
                <path d="M460.08,0.81 L450.08,10.81" id="Shape"></path>
                <path d="M450.08,0.81 L440.08,10.81" id="Shape"></path>
                <path d="M440.08,0.81 L430.08,10.81" id="Shape"></path>
                <path d="M430.08,0.81 L420.08,10.81" id="Shape"></path>
                <path d="M420.08,0.81 L410.08,10.81" id="Shape"></path>
                <path d="M410.08,0.81 L400.08,10.81" id="Shape"></path>
                <path d="M400.08,0.81 L390.08,10.81" id="Shape"></path>
                <path d="M390.08,0.81 L380.08,10.81" id="Shape"></path>
                <path d="M308.66,5.81 L16.17,5.81" id="Shape"></path>
                <rect id="Rectangle-path" transform="translate(5.240088, 5.812538) rotate(-45.000000) translate(-5.240088, -5.812538) " x="1.70508807" y="2.27753793" width="7.07" height="7.07"></rect>
                <path d="M531.51,5.81 L824,5.81" id="Shape"></path>
                <rect id="Rectangle-path" transform="translate(834.915371, 5.807255) rotate(-45.000000) translate(-834.915371, -5.807255) " x="831.380371" y="2.27225479" width="7.07" height="7.07"></rect>
            </g>
            <g id="Group">
                <path d="M520.08,10.25 L510.08,0.25" id="Shape"></path>
                <path d="M510.08,10.25 L500.08,0.25" id="Shape"></path>
                <path d="M500.08,10.25 L490.08,0.25" id="Shape"></path>
                <path d="M490.08,10.25 L480.08,0.25" id="Shape"></path>
                <path d="M480.08,10.25 L470.08,0.25" id="Shape"></path>
                <path d="M470.08,10.25 L460.08,0.25" id="Shape"></path>
                <path d="M460.08,10.25 L450.08,0.25" id="Shape"></path>
                <path d="M450.08,10.25 L440.08,0.25" id="Shape"></path>
                <path d="M440.08,10.25 L430.08,0.25" id="Shape"></path>
                <path d="M430.08,10.25 L420.08,0.25" id="Shape"></path>
                <path d="M420.08,10.25 L410.08,0.25" id="Shape"></path>
                <path d="M410.08,10.25 L400.08,0.25" id="Shape"></path>
                <path d="M400.08,10.25 L390.08,0.25" id="Shape"></path>
                <path d="M390.08,10.25 L380.08,0.25" id="Shape"></path>
                <path d="M320.08,10.25 L330.08,0.25" id="Shape"></path>
                <path d="M330.08,10.25 L340.08,0.25" id="Shape"></path>
                <path d="M340.08,10.25 L350.08,0.25" id="Shape"></path>
                <path d="M350.08,10.25 L360.08,0.25" id="Shape"></path>
                <path d="M360.08,10.25 L370.08,0.25" id="Shape"></path>
                <path d="M370.08,10.25 L380.08,0.25" id="Shape"></path>
                <path d="M380.08,10.25 L390.08,0.25" id="Shape"></path>
                <path d="M390.08,10.25 L400.08,0.25" id="Shape"></path>
                <path d="M400.08,10.25 L410.08,0.25" id="Shape"></path>
                <path d="M410.08,10.25 L420.08,0.25" id="Shape"></path>
                <path d="M420.08,10.25 L430.08,0.25" id="Shape"></path>
                <path d="M430.08,10.25 L440.08,0.25" id="Shape"></path>
                <path d="M440.08,10.25 L450.08,0.25" id="Shape"></path>
                <path d="M450.08,10.25 L460.08,0.25" id="Shape"></path>
                <path d="M531.51,5.25 L824,5.25" id="Shape"></path>
                <rect id="Rectangle-path" transform="translate(834.912833, 5.254717) rotate(-45.000000) translate(-834.912833, -5.254717) " x="831.377833" y="1.71971685" width="7.07" height="7.07"></rect>
                <path d="M308.66,5.25 L16.17,5.25" id="Shape"></path>
                <rect id="Rectangle-path" transform="translate(5.247550, 5.250000) rotate(-45.000000) translate(-5.247550, -5.250000) " x="1.71255013" y="1.715" width="7.07" height="7.07"></rect>
            </g>
        </g>
    </g>
</svg>